PathFileType	4	(X/Y/Z)	RBDS014\RBDS014runT25.trc
DataRate	CameraRate	NumFrames	NumMarkers	Units	OrigDataRate	OrigDataStartFrame	OrigNumFrames
150.000000	150.000000	5	33	mm	150.000000	1687	4500
Frame#	Time	L.ASIS			L.Heel.Bottom			L.Heel.Lateral			L.Heel.Top			L.Iliac.Crest			L.MT1			L.MT5			L.PSIS			L.Shank.Bottom.Lateral			L.Shank.Bottom.Medial			L.Shank.Top.Lateral			L.Shank.Top.Medial			L.Thigh.Bottom.Lateral			L.Thigh.Bottom.Medial			L.Thigh.Top.Lateral			L.Thigh.Top.Medial			R.ASIS			R.ASY			R.Heel.Bottom			R.Heel.Lateral			R.Heel.Top			R.Iliac.Crest			R.MT1			R.MT5			R.PSIS			R.Shank.Bottom.Lateral			R.Shank.Bottom.Medial			R.Shank.Top.Lateral			R.Shank.Top.Medial			R.Thigh.Bottom.Lateral			R.Thigh.Bottom.Medial			R.Thigh.Top.Lateral			R.Thigh.Top.Medial			
		X1	Y1	Z1	X2	Y2	Z2	X3	Y3	Z3	X4	Y4	Z4	X5	Y5	Z5	X6	Y6	Z6	X7	Y7	Z7	X8	Y8	Z8	X9	Y9	Z9	X10	Y10	Z10	X11	Y11	Z11	X12	Y12	Z12	X13	Y13	Z13	X14	Y14	Z14	X15	Y15	Z15	X16	Y16	Z16	X17	Y17	Z17	X18	Y18	Z18	X19	Y19	Z19	X20	Y20	Z20	X21	Y21	Z21	X22	Y22	Z22	X23	Y23	Z23	X24	Y24	Z24	X25	Y25	Z25	X26	Y26	Z26	X27	Y27	Z27	X28	Y28	Z28	X29	Y29	Z29	X30	Y30	Z30	X31	Y31	Z31	X32	Y32	Z32	X33	Y33	Z33	

1688	11.24666666666667	2085.635784071161	1022.360894109474	916.3010665961432	1600.526714766293	425.9854495779136	963.7766336295228	1627.366364406662	415.4765559918823	920.3144011138862	1651.57072695479	429.5952338895954	964.4048233422108	2025.22634058457	1088.257617073308	874.1196298555932	1679.903361467687	200.9856879836019	972.1894067820713	1660.346135403483	252.6147197013725	863.0900054826736	1906.244461566113	1043.959017409348	981.9930282753751	1782.667744497123	412.2803736983328	895.7678284336695	1771.783331562252	446.6025734733379	938.0661975963671	1855.706123753527	445.0897219200778	889.3721958359557	1846.751981247315	478.0613812955394	930.5873067337509	2097.94669073566	639.7011642524685	868.9608427867788	2042.201773187707	620.7753345042948	911.2898741036051	2054.247457165834	740.9706816551483	861.1093429625278	2003.58542220184	724.561534492994	904.0018391851067	2084.138390966074	1062.730193791938	1160.512004850619	2012.210243128365	85.22625398637831	1056.589602729728	1815.625362101785	35.19458836371731	1024.47064459406	1834.988817085951	56.75310361188276	1065.691492708989	1827.757978891972	86.33895714191102	1024.337240786342	2015.842106182154	1115.919505432407	1188.225189036778	2054.044428669074	48.67965993860287	1011.941860085704	2003.780926619346	35.94544492107244	1125.974675950595	1910.881024309455	1066.59554723965	1071.389500497897	1921.781126573277	183.2918408339309	1105.14073436887	1899.469228689794	207.8137928964098	1065.732377753445	1949.674075227034	258.4828860171212	1133.411284418378	1924.650368529769	280.0862066585818	1091.650864921295	2099.906107985404	658.8799210566208	1205.367916266362	2033.621774481073	642.2455338194021	1177.994603596151	2064.255572727498	761.0097921667749	1222.290752118659	2002.519216121211	746.8264081407083	1192.861196692128	
1689	11.25333333333333	2084.201123207152	1024.475232529611	915.8082668718201	1613.063352223353	418.8308524560758	962.2986021921607	1640.644297897567	408.701356474808	919.1963382206941	1663.936483044037	424.0396604517128	963.317161916296	2023.192631455757	1090.559852868846	874.1613869443019	1699.154501599407	196.5948613342336	973.9555364744226	1679.084296454601	246.3110993406606	864.082956094755	1905.054375549259	1046.201416354961	982.3616179515236	1796.379038367296	409.5981554423112	896.0483125237125	1784.454197505769	443.8927321240971	938.0995306339984	1868.808659764091	443.9172653438882	889.9645823948279	1858.681525161206	477.0056793533349	930.9451954588336	2105.66303019466	643.8097978353187	869.7642494148806	2050.295324886985	623.1091787139785	911.7874038654876	2058.897197633061	743.7609416292319	861.9166177457216	2008.545092896306	725.6687198547887	904.44414283459	2083.223968168772	1063.03748437361	1160.488478628019	1995.62453234793	85.25654831729706	1056.863921486759	1798.804737263056	36.22061559938847	1024.631950113333	1818.274771051354	57.5646517948209	1065.932888116597	1811.189232597427	87.28896977421903	1024.64800282258	2016.814527610243	1118.157177846921	1187.657502942883	2037.204415670869	48.47769864954432	1012.094095831127	1986.892854036475	35.88382227272257	1126.021881885561	1909.955362871109	1068.710591537291	1071.866557598216	1906.360758286705	184.172102954962	1105.283208857028	1884.206832207428	208.9173096155922	1065.903079243422	1935.008973745933	259.0688001921077	1133.574486180484	1910.150882441228	280.9461724788207	1091.830279453568	2091.141907218686	658.2808995138399	1205.234228003214	2024.551890619919	643.0527060051262	1177.845606815195	2057.642588066209	761.1521869612662	1222.174876659859	1995.664225216078	748.273757008954	1192.606753804035	
1690	11.26	2083.067107529202	1027.105668782116	915.5483732566692	1625.684827775361	410.4174242336639	961.196078971226	1653.971255815211	400.8268558671681	918.4131871790178	1676.303377178279	417.4258301277779	962.5045499500528	2021.589897990113	1093.345284351429	874.3041060085806	1719.15697154446	191.5415095851872	975.8765097458713	1698.273388847785	239.3150179648589	865.3072082002874	1904.003683938718	1048.845167026577	982.5486888824034	1809.978804229544	406.3472546056033	896.481970824608	1796.870683108405	440.6062981671497	938.2105413150055	1881.626076321666	442.4466522814316	890.6273840150608	1870.170680476472	475.6564910754318	931.2915569838362	2113.216215591349	648.714116869264	870.538064427772	2058.234384175335	626.2980038725455	912.2073100826166	2063.517056879607	747.2861512823313	862.6197687017856	2013.457457449142	727.5524762754183	904.7227871971933	2082.268929868584	1063.591799159561	1160.619286549806	1979.109750518174	85.41777820484279	1057.13623510681	1782.034354624066	37.5257087945641	1024.807254001664	1801.638227661981	58.60461953957793	1066.200584808809	1794.71057312312	88.50428701321646	1025.002097462402	2017.877741007316	1120.414890482685	1187.141576267612	2020.359632810078	48.33700340938292	1012.163446817385	1970.023111293457	35.90846987213521	1126.014403539997	1909.111018035937	1071.060425952391	1072.245947362173	1890.887753204471	185.3336893586651	1105.361405747514	1868.88456889551	210.2590621631492	1065.992751491707	1920.211164454774	259.9762534188488	1133.652974279838	1895.515656832674	282.0779496626624	1091.904866977764	2081.965978664086	657.9706877223489	1204.925985743807	2015.201867278935	644.2700223681067	1177.289471623955	2050.669103702039	761.561485420231	1221.911972821854	1988.568461804022	750.0787262641339	1192.014655702889	
1691	11.26666666666667	2082.254601312254	1030.160769049274	915.5298169777707	1638.447518183902	400.7924270293205	960.4892448618714	1667.408416815859	391.9093063169069	917.9830541850403	1688.715047430579	409.7819763773421	962.0024340994912	2020.42080252442	1096.540871690897	874.5266405070147	1739.900950190989	185.90902930176	977.9065385094341	1717.949813441862	231.7439995640524	866.7254586757371	1903.109180076493	1051.862635688104	982.5261129292696	1823.49464974796	402.5310650831781	897.0807967336548	1809.069365905736	436.7369624794525	938.4085850067964	1894.170657734175	440.6546034872933	891.3649997534209	1881.253619993446	473.9674967461541	931.628941668812	2120.582174271786	654.3231022883969	871.2698180384717	2065.971897386699	630.2603747565397	912.5202221470091	2068.108712981834	751.4695440440827	863.1888767057964	2018.299522845317	730.1483144346485	904.790187780204	2081.302291696778	1064.424143426844	1160.884368889025	1962.69588651675	85.70809929663791	1057.422570872751	1765.328754603837	39.17185972981392	1025.000702753285	1785.097587365856	59.92687350022836	1066.497944300848	1778.347741709246	90.04461180284018	1025.408549266484	2018.963580173952	1122.635100643366	1186.702516525093	2003.508751956474	48.25496879427065	1012.155763927085	1953.174069192938	36.0067949962454	1125.952299756463	1908.370024667249	1073.617390815228	1072.505200826192	1875.377090255309	186.8025325154587	1105.394494598825	1853.523859451689	211.8665804252504	1066.018468975082	1905.300965558872	261.2289262465666	1133.66150562314	1880.764432196794	283.5092489414661	1091.892028603369	2072.458803761522	657.9911912717362	1204.451190027748	2005.629312182996	645.927573577133	1176.380744654042	2043.425520691388	762.275153721185	1221.509253643389	1981.304907652929	752.2706650118345	1191.133418520304	
1692	11.27333333333333	2081.774441526761	1033.558587446218	915.7397815775538	1651.424767305926	390.0226841481773	960.1841956905398	1681.02882829629	382.0165957352197	917.9131090814761	1701.233022893568	401.1487869788001	961.8352639552387	2019.664910373044	1100.085723618105	874.806440761884	1761.374820010877	179.7855710336912	980.0037192619272	1738.14990740293	223.7116596155916	868.3009322435495	1902.388972175986	1055.236230390446	982.2805379743114	1836.967579050167	398.1602655001026	897.8528999870643	1821.102035507824	432.2813559826662	938.7043922501516	1906.468022289969	438.5215545074433	892.1822190047201	1891.978363979007	471.8926090354103	931.9653502539228	2127.732953461387	660.5421172450682	871.9468611537919	2073.460460483711	634.90898567312	912.7024751564171	2072.664431187578	756.2323841336214	863.599755360857	2023.045862361387	733.3880554851918	904.6114879850188	2080.364436870747	1065.556047556531	1161.253198841949	1946.414053192872	86.1174750314195	1057.741994118189	1748.704758113855	41.22163068505981	1025.217834851785	1768.671724456217	61.58666299797535	1066.830031330122	1762.129038445767	91.96874123661246	1025.876809130714	2020.024765255678	1124.802049054995	1186.355259226651	1986.652516826999	48.22219006151362	1012.083847065212	1936.347376743381	36.16351465043054	1125.84067449031	1907.756935679113	1076.369108927332	1072.6328052922	1859.851203579987	188.6031518201669	1105.406652685552	1838.152345749495	213.7662787830044	1066.003770377094	1890.305051228967	262.8489396474985	1133.62179642553	1865.922870356804	285.2666629264266	1091.816630384764	2062.716142843021	658.3847036988966	1203.827664072177	1995.90247947208	648.0499923450375	1175.196355186798	2036.017860292883	763.3300738408456	1220.980464552651	1973.955035809419	754.8741487858782	1190.031175542986	
